# xmcd CD database file
#
# Track frame offsets:
#	183
#	13255
#	23583
#	36963
#	50580
#	66648
#	87015
#	99940
#	116425
#	130053
#	142535
#	158900
#
# Disc length: 2263 seconds
#
# Revision: 0
# Processed by: cddbd v1.5.1PL2 Copyright (c) Steve Scherf et al.
# Submitted via: CDex 1.51
#
DISCID=9308d50c
DTITLE=Mel Tormé with The Mel-Tones - Back in Town
DYEAR=1900
DGENRE=Jazz
TTITLE0=Makin' whoopee
TTITLE1=Baubles, bangles and beads
TTITLE2=What is this thing called love
TTITLE3=I've never been in love before
TTITLE4=Truckin'
TTITLE5=A bunch of blues: Keester parade - TNT - Tiny's blues
TTITLE6=It happened in Monterrey
TTITLE7=I hadn't anyone till you
TTITLE8=A smooth one
TTITLE9=Don't dream of anybody but me
TTITLE10=Some like it hot
TTITLE11=Hit the road to dreamland
EXTD=
EXTT0=
EXTT1=
EXTT2=
EXTT3=
EXTT4=
EXTT5=
EXTT6=
EXTT7=
EXTT8=
EXTT9=
EXTT10=
EXTT11=
PLAYORDER=
